<svg width="18" height="18" viewBox="0 0 18 18" fill="none" xmlns="http://www.w3.org/2000/svg">
<path d="M9 1.56C8.00544 2.55456 7.4467 3.90347 7.4467 5.31C7.4467 6.71652 8.00544 8.06544 9 9.06C9.99456 10.0546 11.3435 10.6133 12.75 10.6133C14.1565 10.6133 15.5054 10.0546 16.5 9.06C16.5 10.5434 16.0601 11.9934 15.236 13.2268C14.4119 14.4601 13.2406 15.4214 11.8701 15.9891C10.4997 16.5568 8.99168 16.7053 7.53683 16.4159C6.08197 16.1265 4.7456 15.4122 3.6967 14.3633C2.64781 13.3144 1.9335 11.978 1.64411 10.5232C1.35472 9.06832 1.50325 7.56032 2.07091 6.18987C2.63856 4.81943 3.59986 3.64809 4.83323 2.82398C6.0666 1.99987 7.51664 1.56 9 1.56Z" stroke="#9A9C9F" stroke-width="2" stroke-linecap="round" stroke-linejoin="round"/>
</svg>
